<svg xmlns="http://www.w3.org/2000/svg" xmlns:xlink="http://www.w3.org/1999/xlink" width="1848" height="157" viewBox="0 0 1848 157">
  <defs>
    <clipPath id="clip-path">
      <rect width="299" height="146" fill="none"/>
    </clipPath>
  </defs>
  <g id="Cuadrícula_de_repetición_2" data-name="Cuadrícula de repetición 2" transform="translate(1549)" opacity="0.09" clip-path="url(#clip-path)">
    <g transform="translate(-61 -48)">
      <circle id="Elipse_1" data-name="Elipse 1" cx="11.5" cy="11.5" r="11.5" transform="translate(61 48)" fill="#329d19"/>
    </g>
    <g transform="translate(-16 -48)">
      <circle id="Elipse_1-2" data-name="Elipse 1" cx="11.5" cy="11.5" r="11.5" transform="translate(61 48)" fill="#329d19"/>
    </g>
    <g transform="translate(29 -48)">
      <circle id="Elipse_1-3" data-name="Elipse 1" cx="11.5" cy="11.5" r="11.5" transform="translate(61 48)" fill="#329d19"/>
    </g>
    <g transform="translate(74 -48)">
      <circle id="Elipse_1-4" data-name="Elipse 1" cx="11.5" cy="11.5" r="11.5" transform="translate(61 48)" fill="#329d19"/>
    </g>
    <g transform="translate(119 -48)">
      <circle id="Elipse_1-5" data-name="Elipse 1" cx="11.5" cy="11.5" r="11.5" transform="translate(61 48)" fill="#329d19"/>
    </g>
    <g transform="translate(164 -48)">
      <circle id="Elipse_1-6" data-name="Elipse 1" cx="11.5" cy="11.5" r="11.5" transform="translate(61 48)" fill="#329d19"/>
    </g>
    <g transform="translate(209 -48)">
      <circle id="Elipse_1-7" data-name="Elipse 1" cx="11.5" cy="11.5" r="11.5" transform="translate(61 48)" fill="#329d19"/>
    </g>
    <g transform="translate(-61 -8)">
      <circle id="Elipse_1-8" data-name="Elipse 1" cx="11.5" cy="11.5" r="11.5" transform="translate(61 48)" fill="#329d19"/>
    </g>
    <g transform="translate(-16 -8)">
      <circle id="Elipse_1-9" data-name="Elipse 1" cx="11.5" cy="11.5" r="11.5" transform="translate(61 48)" fill="#329d19"/>
    </g>
    <g transform="translate(29 -8)">
      <circle id="Elipse_1-10" data-name="Elipse 1" cx="11.5" cy="11.5" r="11.5" transform="translate(61 48)" fill="#329d19"/>
    </g>
    <g transform="translate(74 -8)">
      <circle id="Elipse_1-11" data-name="Elipse 1" cx="11.5" cy="11.5" r="11.5" transform="translate(61 48)" fill="#329d19"/>
    </g>
    <g transform="translate(119 -8)">
      <circle id="Elipse_1-12" data-name="Elipse 1" cx="11.5" cy="11.5" r="11.5" transform="translate(61 48)" fill="#329d19"/>
    </g>
    <g transform="translate(164 -8)">
      <circle id="Elipse_1-13" data-name="Elipse 1" cx="11.5" cy="11.5" r="11.5" transform="translate(61 48)" fill="#329d19"/>
    </g>
    <g transform="translate(209 -8)">
      <circle id="Elipse_1-14" data-name="Elipse 1" cx="11.5" cy="11.5" r="11.5" transform="translate(61 48)" fill="#329d19"/>
    </g>
    <g transform="translate(-61 32)">
      <circle id="Elipse_1-15" data-name="Elipse 1" cx="11.5" cy="11.5" r="11.5" transform="translate(61 48)" fill="#329d19"/>
    </g>
    <g transform="translate(-16 32)">
      <circle id="Elipse_1-16" data-name="Elipse 1" cx="11.5" cy="11.5" r="11.5" transform="translate(61 48)" fill="#329d19"/>
    </g>
    <g transform="translate(29 32)">
      <circle id="Elipse_1-17" data-name="Elipse 1" cx="11.5" cy="11.5" r="11.5" transform="translate(61 48)" fill="#329d19"/>
    </g>
    <g transform="translate(74 32)">
      <circle id="Elipse_1-18" data-name="Elipse 1" cx="11.5" cy="11.5" r="11.5" transform="translate(61 48)" fill="#329d19"/>
    </g>
    <g transform="translate(119 32)">
      <circle id="Elipse_1-19" data-name="Elipse 1" cx="11.5" cy="11.5" r="11.5" transform="translate(61 48)" fill="#329d19"/>
    </g>
    <g transform="translate(164 32)">
      <circle id="Elipse_1-20" data-name="Elipse 1" cx="11.5" cy="11.5" r="11.5" transform="translate(61 48)" fill="#329d19"/>
    </g>
    <g transform="translate(209 32)">
      <circle id="Elipse_1-21" data-name="Elipse 1" cx="11.5" cy="11.5" r="11.5" transform="translate(61 48)" fill="#329d19"/>
    </g>
    <g transform="translate(-61 72)">
      <circle id="Elipse_1-22" data-name="Elipse 1" cx="11.5" cy="11.5" r="11.5" transform="translate(61 48)" fill="#329d19"/>
    </g>
    <g transform="translate(-16 72)">
      <circle id="Elipse_1-23" data-name="Elipse 1" cx="11.5" cy="11.5" r="11.5" transform="translate(61 48)" fill="#329d19"/>
    </g>
    <g transform="translate(29 72)">
      <circle id="Elipse_1-24" data-name="Elipse 1" cx="11.5" cy="11.5" r="11.5" transform="translate(61 48)" fill="#329d19"/>
    </g>
    <g transform="translate(74 72)">
      <circle id="Elipse_1-25" data-name="Elipse 1" cx="11.5" cy="11.5" r="11.5" transform="translate(61 48)" fill="#329d19"/>
    </g>
    <g transform="translate(119 72)">
      <circle id="Elipse_1-26" data-name="Elipse 1" cx="11.5" cy="11.5" r="11.5" transform="translate(61 48)" fill="#329d19"/>
    </g>
    <g transform="translate(164 72)">
      <circle id="Elipse_1-27" data-name="Elipse 1" cx="11.5" cy="11.5" r="11.5" transform="translate(61 48)" fill="#329d19"/>
    </g>
    <g transform="translate(209 72)">
      <circle id="Elipse_1-28" data-name="Elipse 1" cx="11.5" cy="11.5" r="11.5" transform="translate(61 48)" fill="#329d19"/>
    </g>
  </g>
  <path id="Polígono_5" data-name="Polígono 5" d="M32.579,0,65.158,56.471H0Z" transform="matrix(-0.454, -0.891, 0.891, -0.454, 166.655, 115.347)" fill="#2ebe50" opacity="0.22"/>
  <circle id="Elipse_5" data-name="Elipse 5" cx="63.5" cy="63.5" r="63.5" transform="translate(0 30)" fill="#e1d2e7" opacity="0.4"/>
</svg>
