<svg xmlns="http://www.w3.org/2000/svg" xmlns:xlink="http://www.w3.org/1999/xlink" width="1810.612" height="325.655" viewBox="0 0 1810.612 325.655">
  <defs>
    <clipPath id="clip-path">
      <rect width="299" height="146" fill="none"/>
    </clipPath>
  </defs>
  <g id="Cuadrícula_de_repetición_1" data-name="Cuadrícula de repetición 1" transform="translate(0 117)" opacity="0.1" clip-path="url(#clip-path)">
    <g transform="translate(-61 -48)">
      <circle id="Elipse_1" data-name="Elipse 1" cx="11.5" cy="11.5" r="11.5" transform="translate(61 48)" fill="#4f8521"/>
    </g>
    <g transform="translate(-16 -48)">
      <circle id="Elipse_1-2" data-name="Elipse 1" cx="11.5" cy="11.5" r="11.5" transform="translate(61 48)" fill="#4f8521"/>
    </g>
    <g transform="translate(29 -48)">
      <circle id="Elipse_1-3" data-name="Elipse 1" cx="11.5" cy="11.5" r="11.5" transform="translate(61 48)" fill="#4f8521"/>
    </g>
    <g transform="translate(74 -48)">
      <circle id="Elipse_1-4" data-name="Elipse 1" cx="11.5" cy="11.5" r="11.5" transform="translate(61 48)" fill="#4f8521"/>
    </g>
    <g transform="translate(119 -48)">
      <circle id="Elipse_1-5" data-name="Elipse 1" cx="11.5" cy="11.5" r="11.5" transform="translate(61 48)" fill="#4f8521"/>
    </g>
    <g transform="translate(164 -48)">
      <circle id="Elipse_1-6" data-name="Elipse 1" cx="11.5" cy="11.5" r="11.5" transform="translate(61 48)" fill="#4f8521"/>
    </g>
    <g transform="translate(209 -48)">
      <circle id="Elipse_1-7" data-name="Elipse 1" cx="11.5" cy="11.5" r="11.5" transform="translate(61 48)" fill="#4f8521"/>
    </g>
    <g transform="translate(-61 -8)">
      <circle id="Elipse_1-8" data-name="Elipse 1" cx="11.5" cy="11.5" r="11.5" transform="translate(61 48)" fill="#4f8521"/>
    </g>
    <g transform="translate(-16 -8)">
      <circle id="Elipse_1-9" data-name="Elipse 1" cx="11.5" cy="11.5" r="11.5" transform="translate(61 48)" fill="#4f8521"/>
    </g>
    <g transform="translate(29 -8)">
      <circle id="Elipse_1-10" data-name="Elipse 1" cx="11.5" cy="11.5" r="11.5" transform="translate(61 48)" fill="#4f8521"/>
    </g>
    <g transform="translate(74 -8)">
      <circle id="Elipse_1-11" data-name="Elipse 1" cx="11.5" cy="11.5" r="11.5" transform="translate(61 48)" fill="#4f8521"/>
    </g>
    <g transform="translate(119 -8)">
      <circle id="Elipse_1-12" data-name="Elipse 1" cx="11.5" cy="11.5" r="11.5" transform="translate(61 48)" fill="#4f8521"/>
    </g>
    <g transform="translate(164 -8)">
      <circle id="Elipse_1-13" data-name="Elipse 1" cx="11.5" cy="11.5" r="11.5" transform="translate(61 48)" fill="#4f8521"/>
    </g>
    <g transform="translate(209 -8)">
      <circle id="Elipse_1-14" data-name="Elipse 1" cx="11.5" cy="11.5" r="11.5" transform="translate(61 48)" fill="#4f8521"/>
    </g>
    <g transform="translate(-61 32)">
      <circle id="Elipse_1-15" data-name="Elipse 1" cx="11.5" cy="11.5" r="11.5" transform="translate(61 48)" fill="#4f8521"/>
    </g>
    <g transform="translate(-16 32)">
      <circle id="Elipse_1-16" data-name="Elipse 1" cx="11.5" cy="11.5" r="11.5" transform="translate(61 48)" fill="#4f8521"/>
    </g>
    <g transform="translate(29 32)">
      <circle id="Elipse_1-17" data-name="Elipse 1" cx="11.5" cy="11.5" r="11.5" transform="translate(61 48)" fill="#4f8521"/>
    </g>
    <g transform="translate(74 32)">
      <circle id="Elipse_1-18" data-name="Elipse 1" cx="11.5" cy="11.5" r="11.5" transform="translate(61 48)" fill="#4f8521"/>
    </g>
    <g transform="translate(119 32)">
      <circle id="Elipse_1-19" data-name="Elipse 1" cx="11.5" cy="11.5" r="11.5" transform="translate(61 48)" fill="#4f8521"/>
    </g>
    <g transform="translate(164 32)">
      <circle id="Elipse_1-20" data-name="Elipse 1" cx="11.5" cy="11.5" r="11.5" transform="translate(61 48)" fill="#4f8521"/>
    </g>
    <g transform="translate(209 32)">
      <circle id="Elipse_1-21" data-name="Elipse 1" cx="11.5" cy="11.5" r="11.5" transform="translate(61 48)" fill="#4f8521"/>
    </g>
    <g transform="translate(-61 72)">
      <circle id="Elipse_1-22" data-name="Elipse 1" cx="11.5" cy="11.5" r="11.5" transform="translate(61 48)" fill="#4f8521"/>
    </g>
    <g transform="translate(-16 72)">
      <circle id="Elipse_1-23" data-name="Elipse 1" cx="11.5" cy="11.5" r="11.5" transform="translate(61 48)" fill="#4f8521"/>
    </g>
    <g transform="translate(29 72)">
      <circle id="Elipse_1-24" data-name="Elipse 1" cx="11.5" cy="11.5" r="11.5" transform="translate(61 48)" fill="#4f8521"/>
    </g>
    <g transform="translate(74 72)">
      <circle id="Elipse_1-25" data-name="Elipse 1" cx="11.5" cy="11.5" r="11.5" transform="translate(61 48)" fill="#4f8521"/>
    </g>
    <g transform="translate(119 72)">
      <circle id="Elipse_1-26" data-name="Elipse 1" cx="11.5" cy="11.5" r="11.5" transform="translate(61 48)" fill="#4f8521"/>
    </g>
    <g transform="translate(164 72)">
      <circle id="Elipse_1-27" data-name="Elipse 1" cx="11.5" cy="11.5" r="11.5" transform="translate(61 48)" fill="#4f8521"/>
    </g>
    <g transform="translate(209 72)">
      <circle id="Elipse_1-28" data-name="Elipse 1" cx="11.5" cy="11.5" r="11.5" transform="translate(61 48)" fill="#4f8521"/>
    </g>
  </g>
  <path id="Polígono_1" data-name="Polígono 1" d="M67.5,0,135,117H0Z" transform="matrix(-0.921, -0.391, 0.391, -0.921, 1458.268, 303.224)" fill="#26b7a8" opacity="0.1"/>
  <path id="Polígono_3" data-name="Polígono 3" d="M67.5,0,135,117H0Z" transform="matrix(-0.921, -0.391, 0.391, -0.921, 1000.776, 176.224)" fill="#633939" opacity="0.1"/>
  <path id="Polígono_4" data-name="Polígono 4" d="M35.191,0,70.383,61H0Z" transform="translate(454.422 264.995) rotate(132)" fill="#9e2626" opacity="0.1"/>
  <path id="Polígono_2" data-name="Polígono 2" d="M67.5,0,135,117H0Z" transform="matrix(-0.921, 0.391, -0.391, -0.921, 660.492, 224.699)" fill="#d950cc" opacity="0.1"/>
  <circle id="Elipse_2" data-name="Elipse 2" cx="117" cy="117" r="117" transform="translate(1217)" fill="#3a17f2" opacity="0.1"/>
  <circle id="Elipse_3" data-name="Elipse 3" cx="63.5" cy="63.5" r="63.5" transform="translate(439 126)" fill="#941ec5" opacity="0.1"/>
  <rect id="Rectángulo_2" data-name="Rectángulo 2" width="121" height="121" transform="translate(1639.492 197.224) rotate(-45)" fill="#d5a82c" opacity="0.1"/>
  <rect id="Rectángulo_3" data-name="Rectángulo 3" width="51.375" height="51.375" transform="translate(1516.837 289.328) rotate(-45)" fill="#2c26df" opacity="0.1"/>
</svg>
